/* XPM */
const static char * img10_xpm[] = {
"80 80 180 2",
"  	c None",
". 	c #F8F8F8",
"+ 	c #F9F9F9",
"@ 	c #FAFAFA",
"# 	c #F7F7F7",
"$ 	c #F6F6F6",
"% 	c #F5F5F5",
"& 	c #F4F4F4",
"* 	c #F3F3F3",
"= 	c #F1F1F1",
"- 	c #EFEFEF",
"; 	c #F0F0F0",
"> 	c #EEEEEE",
", 	c #F2F2F2",
"' 	c #EDEDED",
") 	c #EBEBEB",
"! 	c #ECECEC",
"~ 	c #E9E9E9",
"{ 	c #EAEAEA",
"] 	c #E8E8E8",
"^ 	c #E7E7E7",
"/ 	c #E5E5E5",
"( 	c #E6E6E6",
"_ 	c #E3E3E3",
": 	c #E2E2E2",
"< 	c #E0E0E0",
"[ 	c #E4E4E4",
"} 	c #E1E1E1",
"| 	c #DDDDDD",
"1 	c #DFDFDF",
"2 	c #DEDEDE",
"3 	c #DBDBDB",
"4 	c #DADADA",
"5 	c #D9D9D9",
"6 	c #DCDCDC",
"7 	c #D5D5D5",
"8 	c #D7D7D7",
"9 	c #D8D8D8",
"0 	c #D6D6D6",
"a 	c #787878",
"b 	c #898989",
"c 	c #CFCFCF",
"d 	c #D4D4D4",
"e 	c #D3D3D3",
"f 	c #626262",
"g 	c #2C2C2C",
"h 	c #8A8A8A",
"i 	c #CDCDCD",
"j 	c #CECECE",
"k 	c #888888",
"l 	c #2B2B2B",
"m 	c #323232",
"n 	c #BABABA",
"o 	c #C9C9C9",
"p 	c #D0D0D0",
"q 	c #D1D1D1",
"r 	c #C6C6C6",
"s 	c #BFBFBF",
"t 	c #303030",
"u 	c #282828",
"v 	c #585858",
"w 	c #C4C4C4",
"x 	c #CBCBCB",
"y 	c #CACACA",
"z 	c #C7C7C7",
"A 	c #2A2A2A",
"B 	c #AAAAAA",
"C 	c #CCCCCC",
"D 	c #C5C5C5",
"E 	c #C2C2C2",
"F 	c #C8C8C8",
"G 	c #C0C0C0",
"H 	c #C1C1C1",
"I 	c #BCBCBC",
"J 	c #A6A6A6",
"K 	c #D2D2D2",
"L 	c #B3B3B3",
"M 	c #A0A0A0",
"N 	c #8E8E8E",
"O 	c #878787",
"P 	c #6D6D6D",
"Q 	c #4B4B4B",
"R 	c #383838",
"S 	c #2E2E2E",
"T 	c #2D2D2D",
"U 	c #313131",
"V 	c #3E3E3E",
"W 	c #B9B9B9",
"X 	c #666666",
"Y 	c #292929",
"Z 	c #3A3A3A",
"` 	c #A1A1A1",
" .	c #929292",
"..	c #616161",
"+.	c #272727",
"@.	c #232323",
"#.	c #252525",
"$.	c #212121",
"%.	c #3D3D3D",
"&.	c #363636",
"*.	c #444444",
"=.	c #6B6B6B",
"-.	c #B8B8B8",
";.	c #BBBBBB",
">.	c #949494",
",.	c #454545",
"'.	c #525252",
").	c #646464",
"!.	c #4D4D4D",
"~.	c #3B3B3B",
"{.	c #3C3C3C",
"].	c #404040",
"^.	c #494949",
"/.	c #6A6A6A",
"(.	c #747474",
"_.	c #5B5B5B",
":.	c #5E5E5E",
"<.	c #707070",
"[.	c #AFAFAF",
"}.	c #BEBEBE",
"|.	c #BDBDBD",
"1.	c #C3C3C3",
"2.	c #858585",
"3.	c #B7B7B7",
"4.	c #A3A3A3",
"5.	c #9A9A9A",
"6.	c #979797",
"7.	c #9D9D9D",
"8.	c #A9A9A9",
"9.	c #595959",
"0.	c #606060",
"a.	c #B6B6B6",
"b.	c #9E9E9E",
"c.	c #686868",
"d.	c #FBFBFB",
"e.	c #727272",
"f.	c #B4B4B4",
"g.	c #202020",
"h.	c #B5B5B5",
"i.	c #B1B1B1",
"j.	c #AEAEAE",
"k.	c #808080",
"l.	c #ADADAD",
"m.	c #A4A4A4",
"n.	c #8D8D8D",
"o.	c #505050",
"p.	c #919191",
"q.	c #9B9B9B",
"r.	c #7E7E7E",
"s.	c #B2B2B2",
"t.	c #FDFDFD",
"u.	c #FCFCFC",
"v.	c #575757",
"w.	c #5F5F5F",
"x.	c #767676",
"y.	c #969696",
"z.	c #818181",
"A.	c #8B8B8B",
"B.	c #5A5A5A",
"C.	c #343434",
"D.	c #3F3F3F",
"E.	c #ACACAC",
"F.	c #393939",
"G.	c #2F2F2F",
"H.	c #373737",
"I.	c #636363",
"J.	c #909090",
"K.	c #464646",
"L.	c #A7A7A7",
"M.	c #434343",
"N.	c #757575",
"O.	c #838383",
"P.	c #4A4A4A",
"Q.	c #414141",
"R.	c #696969",
"S.	c #B0B0B0",
"T.	c #828282",
"U.	c #989898",
"V.	c #9F9F9F",
"W.	c #555555",
". + @ . . # # . # # + + # + . # + + # $ % % & & * = - ; - % # . . % $ # . . $ $ $ $ . # # . $ $ % & > - ; , * * * & % # # # . # . + # # . . . # # + # % $ # # . ",
"# . # . + # # + . . + . . + # # . # % & % , , = = ; > - ; # # + # % $ # . . $ # # $ # $ # + . $ $ & ; > > - = = = , , & % $ + # $ # $ # . . . # $ $ $ . + . # # ",
"# # # . # $ $ . @ + + # . . % % $ & * , & = ; - > > ' ' , # % $ . $ % # # # $ # % $ $ $ # . . . + # , ' ) ! - - - - , , * & $ $ % $ $ # # . . # # $ $ + + + . # ",
"+ @ . . . # # + @ @ . $ % # $ % % & & ; ; - > ' ' ) ~ ! & $ & $ # $ $ # # $ $ # $ $ $ % # . $ # . . & ! ~ { ' ' > ' ; ; , % % * % # % # . @ . $ # # . . . . + # ",
"+ @ . . . # + + . . . $ % % & * & & , - > ! ! ) ) ~ ] ) % $ # $ # $ % # # $ $ $ $ $ % % $ . $ # # $ $ > ^ ~ { ! ! ' > ' - , * , & # % # + + . . # # $ $ $ # + . ",
"# . . . . # # # . . . . % * , = , = - > > ! ) { ] ~ ] - % % # # # % $ . # $ $ $ $ # $ % % $ % # # $ % ; / ~ ~ { { ) ' ' - , = = & % * % . # $ . . # $ $ $ # . @ ",
"$ # . . . . $ $ # # % % , * * , ; - ! ) ) ) { ] ^ ( ^ , % % $ $ % & $ # . $ % $ $ $ $ $ & & & $ $ $ & % ^ / ] { { { ! ' ! ; ; ; , & * % # . . . # # # $ # + . + ",
"$ # . . . . $ $ $ % * & & , = - ' ' { ~ ~ ] ^ / _ : ~ % $ % & % & & % $ # $ % $ $ $ % & & & % $ % % % % ! < / ( ( ] { { { ) ' > ; , % $ % # # # # # . # . + . # ",
". . . . . . . $ $ % * * * = - ' ! ! { ~ ] / [ _ : } > % % % & & & & % $ $ $ % $ $ $ # # & & % $ % % % * , < } : _ / ^ ~ { { ! ! > - = * & % $ $ $ + + . . . # + ",
"+ . # # # . . $ $ & * * ; ; ' ! ! { ~ ] / [ : } < [ , & & & & & & & % $ & % % $ $ $ . + # % % % & * & , & : | < } : / ^ ] { ) ! ' ' - = * & % % $ . + . # # % $ ",
"+ . # # # # # & & % & , - > ) { { ] ( [ : } 1 1 2 ( , * & & & & & & % % % % % $ $ $ % $ $ * * * , - = ; ; ^ 3 | < } : [ [ ] { ) ) ! ' - = , * * % # + . # . # . ",
"+ . # . . # # $ * * * ; > ! ~ { ] ^ [ : } 1 | | 4 ~ , * * & * & % & & % $ & & & % & , * * & * , ; ' ' ' ' ] 5 5 6 1 < } : ^ ~ ~ { ) ' - = = = , & % # + . . + + ",
". # $ . . % % & * , = - ' ! ] { ( [ _ } < | 3 5 3 > = , , & * & & * * $ & , , * & * * & & $ , > { ~ ] ( ) ! 4 7 8 6 2 1 } ( ( ^ ] { ) > ; = * * * % $ + + . + # ",
". # $ . . $ * , , = ; - ' ) ] ^ [ : < 2 | 3 9 0 _ = ; = = = = * * , * % , * * * & * , * & % = ) ( } * a b ] } c d 8 6 2 < _ [ [ ^ ~ { ! > ; = * * % % # # # + # ",
". . . . . % * * * ; - ' ) { ] [ _ } 1 | 3 5 0 e ~ - ' = = ; ; ; , = , * , * , , * , = ; = = > ~ _ 4 ' f g h / i j d 9 6 1 } : _ ( ^ ~ { ! > - = * % % $ $ . @ + ",
". . # % % & , , ; ' ) ) { ] [ } } < 6 3 8 7 c d ( / / { ! { { ! > ; - - = = ; = , = = = = = ' ] _ 9 < k l m n e o p e 4 6 2 } : _ ( ^ ~ ~ ! - ; , & & % $ . + . ",
". . $ * * * , = ; ' { ) ] [ } 1 2 6 8 7 q i r 0 2 6 6 1 : : / ^ ~ ) ) > - - > - = ; ; - ; - ! ^ _ 4 q s t u v 8 w x p 0 5 3 | < : _ / ^ ] ) > ; = * & & % $ . # ",
". $ $ $ & * ; - > ! { ( [ } 2 6 9 d p j y z r 0 7 9 5 4 2 < / ^ ^ ^ ) > ! ' ' ' ; > ! ) ' > ! ^ } 5 x q v A u B x r j e 0 5 | 1 < } _ / ^ { ' - - = * & % $ # . ",
"+ # % $ & , - ' { { ~ / : < 2 4 d e q C D E w x D w F G H x 5 [ / ] { ! ) ) ) ! ' ! ! { ! ! ~ ^ } 4 j I J t u v K H y p d 8 6 2 < < _ [ ^ { ! ' - ; = * % % $ # ",
"# $ % % * , > ! ' { ] [ : 1 3 0 4 y L M N h k O P Q R S T U V P 6 ^ ^ ~ { { { { { ) ' { { ~ ^ ( 1 0 y W L X Y Z ` j x j p 0 5 4 2 } : _ ^ { { ) > ; ; , % % % $ ",
"% $ % % * = > ' ' ~ ^ _ } 2 9 p  ...Z +.@.#.$.%.%.S &.&.R &.*.=.c [ [ ] ~ ~ ~ ] ] { ) { ~ ~ ] [ 2 d F -.;.>.,.'.).d [ 6 0 e d 9 | 2 } _ / ^ ~ ) ' > ; , % & % $ ",
"% * & & = ; > ) ~ ( [ } | 5 9 w !.~.{.{.~.].^./.(.f _.:.<.N [.8 1 2 _ ^ ] ] ] ^ ( ] ] ] ~ ^ [ < 4 i }.|.1.G 2.V &.B _ ^ ] _ 1 4 5 6 1 : : [ ^ ~ ! > = * & % % % ",
"% & & = > > ' ~ ] ( : 6 1 [ [ / j 3.4.5.6.7.D 5 | j r H ;.}.i q 8 | } _ [ / / _ : _ : } } < | 0 i s }.r y i 8.Z t 9.y [ ~ ' - > ( < 6 | _ [ ^ { { ! - ; * & % $ ",
"& * & ; ' ! ) ~ ( : : ' * = - ) [ | 9 e x W 3 ! ) ( } 3 d D 1.x K 8 3 4 4 4 6 6 6 4 5 9 0 d c y s |.o c 0 0 s 0.t U 5./ ~ ' ; * * , ! _ 2 : ( ] ~ ) ' ; = * * # ",
"& * , ; ' ) ~ ] ^ ' & % & & ; ' ] _ 2 3 8 F }.$ > ~ ^ } 6 9 x D r C c p K K p p q p j i o D s a.|.y c 8 4 9 9 b.&.l c.d ] ' - * * & $ # * ^ [ ^ ^ ) > - = , & $ ",
"& * = > ' ! ! = % $ & $ $ & , - ! ~ / _ 1 7 |.c d.- ) ^ < 3 5 d y r z z F z D 1.w w H s }.|.I z j i K 8 4 6 ] 1 e.S {.F ( ! > & & & , % # + & ' ~ ] ) - ; = & $ ",
"& & , - = & $ $ # $ $ $ & & * = ; - { ~ ^ 1 d ;.| . - ) ( 2 5 0 7 K p c i i y z z F o o o C c c j K 8 4 | { = H f._.g.-./ ) ; , & % % # # $ # $ * ; ' ! ; = * $ ",
"* * & % . # $ . . % $ $ & & * * * , ; - ! ^ 6 i G / & ' ] [ 2 6 9 d q c p K q p c j i C C C j c e 9 5 1 / # c H i ;.^.L ( { = , * % # . # $ $ # . @ # * ; ; & $ ",
"& & $ . . # % $ # $ $ $ % & & & & * = ; > ~ ( 4 z 1.! ; ' ^ [ : 2 | 3 4 9 8 9 8 7 d d e p q d 0 4 6 1 ^ # 1 D K 9 } K 6 / > * * * & $ $ # $ # # . $ $ # . $ $ $ ",
"$ $ $ # # . # & $ $ % # $ & & & & * = ; > ' ~ : d H y - ; ) ^ / : : } 2 6 6 3 4 5 9 3 6 6 4 3 6 6 } ~ # _ r 0 < : _ ~ ^ ~ - , * * % % % % $ # # $ # $ $ + . # $ ",
". $ % $ $ $ $ $ # # $ . $ & & * & * = ; ; > ) ( 2 c |.j , > { ( ( ( _ } 1 < 2 2 6 | 2 1 < 1 2 1 _ ~ @ ( r K < ^ ~ ~ ) ' - ; , * % $ # $ % % # # $ $ # # # # # # ",
". $ % # # % $ # # . # # $ % % & & * = ; - ) { ~ _ 4 x h.K = ~ ( / ( [ / / _ } } } } < } _ [ _ [ ~ $ > F q 1 / ~ ! > ; ; ; , & % $ $ # % % $ $ $ # # # # . . . # ",
"# $ # . . $ . # # # # $ $ $ % % % & , = - ! ) { / < 7 }.i.< ' ~ ( / ( ( / [ : : : _ : : [ / ( ~ ; % p o 3 / ~ ! ; , = ; ; * & $ # # $ & % $ % $ . # # # # # . $ ",
"# $ . + @ # # # # % % $ $ $ % % % & * ; - ' ! { ^ / | C h.I ^ ~ ] ( ] ] ( [ [ [ / _ : _ / ( ] > $ : 1.e 1 ^ ' > ; = = , * & % % # # % & $ . # $ . # $ $ $ $ . # ",
"# # # # . # # $ % $ $ # $ $ % % % & , = - ! ! ) ~ ^ : 7 G j.0 ( { ( ] { ^ [ / _ < 1 _ _ ( ( ) , % x F 4 _ { > > > ; = * % % $ % % $ % % # . $ % # # $ $ $ $ . . ",
"# . # # $ $ # # $ $ $ $ % % % % % & , = ; > > ' { ^ _ 5 x L H ( > ~ ^ ( ] ^ ^ 5 k._ _ [ ( ( ' # / s q | ^ { ' ' > ; ; * * & $ & * % $ . . $ # % % $ $ $ $ # # # ",
"$ $ . # $ % $ $ $ $ $ & * % . $ % & , = - > - ' { ( [ 3 c 3.l.^ ) * ' { ( 0 m.b.n.;.: [ ( ( > . 8 |.8 1 ( ) > ' > = * , , * % * * $ % $ & % # $ $ # # # # . . . ",
"# % $ # # # # # $ $ $ $ % % # # % , , = - ' ! ! ~ ^ [ | j ;.J ( ~ & % * - l.'.o.Q p._ [ ( ~ > = x E 4 } ^ ! > ' ' = * , , * & * & $ $ % $ $ $ # # # # . . . . + ",
". # $ $ $ $ # # # # # $ % & % $ % , , * = - > ! ~ ] [ 3 c |.B : ~ , * % $ 7 a.q.r.h.( / ^ ] ! > C 1.4 _ ] ! > - - ; , , , * & % & $ $ % # . $ $ $ $ # # # $ $ # ",
". . $ $ $ $ $ # # # $ % & & % $ $ * * * = - > ) { ~ : 5 c ;.s.} ) , , * & ^ j K y j ) ] / / { ' 0 1.8 } ^ ) > ; - = = = , * % $ $ $ $ $ # . $ $ $ $ # # # . # # ",
". . # # # # $ # # $ $ % % & % % % & , = - > ! ] ~ ~ } 0 y 3.H _ ; , , & , = 9 8 q / & * > ~ { { < 1.q | [ ] ! ' - = = , * & $ # $ $ $ # # # # $ # # # # . . + + ",
". # # # # $ $ # $ % $ % $ % & & & & , = > > > ) { ( | d w 3.d ] * , * & $ $ $ . * % & * * & * ) / j j 3 _ ] ! > ; - - = * & % $ $ % % $ # % # + . # # # . . @ @ ",
"$ # $ % $ % % # $ % $ $ % % % * * & * = > > > ! ~ : 9 j }.E 1 , & * & % % , % % & % & * * % # $ ) 4 y 7 2 / { > ; ; - = , * * & & & & % $ & $ . # $ # + + @ @ + ",
"$ $ % & $ $ & $ $ % $ # $ & % * & & = - - > ' ) / 3 p E ;.8 { & = & % $ % $ % & % % & & , * % . $ ~ p j 5 < ~ ' > ; = = = , & * % % & % & $ $ % $ . . . . @ @ # ",
"$ % % $ # # % $ % % $ . # % & & % * - ; - ! ~ ^ 1 8 o W c [ = ; - - - - - - - > ' ' ' ' ) ! = $ d.* } c e 1 / { ! - = , * & * * & & $ % % $ $ % # . $ % % # . $ ",
"$ & % . # # $ $ $ # # $ & % & & % * ; - > ] ] _ 9 j E C 1 ! { ] ^ ^ ] { ~ { ~ ~ ] ] ^ / / / ^ ! = $ - 2 c 0 < ( { ' - ; * % * , * & $ % & % & $ . # # $ $ $ $ # ",
"# $ # + $ # # $ # # $ % % % & * & * ; > ! ^ [ | K 1.o _ ~ / [ / ] ) ! ! { ~ ~ ~ ] ~ ~ ~ ! ' ' { ~ ' # ' 5 c 3 _ ] ' - > = & * , * * $ % & % # . # $ # $ $ # % $ ",
"% % % # # . . $ . # % % % % & , , , , > ) / 1 0 F z 3.l.3 [ ! = % % . . % % # + . . + d.t.u.@ # , ) { & ' 8 e | / ) > > = & * & & & $ % % % . # $ $ . . + . & , ",
"* = ; = $ + . # + . $ % % & , , = = ; ' ~ < 4 c E 3.v.w.K - * & * - > - = * & & * * $ % & # @ u.+ ) [ [ , ] 9 0 : ~ ' - = * & % % & $ % % $ $ $ % $ # $ & , * & ",
", = = > ' ' = $ . # $ % % & * , * ; > ! ^ | e H H x.u =.} # & = & , ' { _ | 9 0 d 9 < / ) , . & ! y.z.G _ ; / d 6 / ) - - * & % % % % $ # # $ % % & = ' - = , & ",
", , , ; ' ! ) ] ! * % % & & * , , = ' { _ 9 z w M ~.Y  .- % # * 4 F 1.G }.G G G }.|.n -.-.I w [ = p.t V A.( - 2 0 1 ^ ' > = * * * % % % $ # & > { ) ! > ; ; * % ",
"* , , = ' { { ^ ( / ! , $ $ * , = ; ' ^ 2 K 1.1.B.C.D.-.+ % : D z j p p K K 7 0 d K e c y w }.E.H C ..F.T e.} ) 6 4 ( ~ ) - = * % $ $ % * ! [ [ ] ~ ) ; ; = * $ ",
"& * , = > ! { ] ^ / : < [ > , & , = > ^ 4 F w s.G.H.c.^ & < x 9 3 6 | < : : : } : _ } 1 | 4 K y a.|.` Q %.l O _ _ 4 } ^ ) ' = & $ % * ~ : < / ] ) ! ! ; = , & # ",
"% * & , - > ) ~ ( [ _ } 3 4 1 ~ - ; ! [ 0 r F I.].,.l.% [ c 1 ( ~ ~ ] { ~ ~ ~ ~ ) ) { ~ ( ( } 3 q s w J.K.{.m 7.[ 6 2 / ~ ' - ; ) _ 6 | : : ( ~ ' > ' - * & * % ",
"$ & & , ; > ! { ^ ( [ } 1 6 9 7 5 1 : | q s L.c.:.<.{ ^ 9 : { > - > ' ' ) { { ' - > ' ! { ] ( : 3 e H D ` ^.M.N.y.2 1 } ~ ( } 3 9 5 6 1 } [ ^ ~ ) ' > ; , & * & ",
"$ & & , ; ' ! ~ ~ ] / : } 2 3 9 8 K C y z n I.O.k W = 1 / ! - > > > ' > > > ' > ' ' ! ! ) ~ ] / _ 6 7 H x W :.M M.O 8 4 d K K 7 5 6 1 } : / ^ ~ { ! > ; = * % % ",
"$ % * = ; ; > { { ] / _ } 1 | 4 8 K F E |.` ~.,./., ) / ! - ; > - > > > ; - ! ) { > ) { ! ) { ~ ( ( 1 8 y } D P.Q.D.r.E z j d 0 3 2 < } / ] ~ ) ! - ; = , & $ # ",
"# % * , ; , ; ' ! ~ ( [ } } 1 6 5 e i w H R.&.Q.b.= 1 ] ' ; ; ; ; ; ; - - > > ' ' ; - > - ' ' ! ) { ^ 2 d 0 ( S.%.~.%.T.j j d 5 | < } _ ] ~ ) ! > ; = , , % . @ ",
"# # & , * & , > ' ) ^ ( [ : } 1 3 d j F h.R D.K.p 0 < ~ ! = , , , = = ; = = ; ; ; = = = = - > > > > ) ^ : 4 c r 5.~.F.].U.9 7 4 2 : [ / ] { ) ! > ; = , & % + . ",
". + % * & & , - > ) { ] ^ [ : < 3 7 j d k.m R >.4 5 _ ~ > = * * * * ; = , , , , , , = ; ; - , = - ; ; > ! ( 2 K n V.D.~.P.o 9 4 1 : ( ] ] ~ { ' ; , , , % $ . $ ",
"+ # % * & & , - > ! ) { ] / _ < | 8 e 3 W.U f }.8 _ ( ! - , & & & % & * & * & & & & & , , , = , = = - > > ! / e }.F -.B.*.p./ 1 } [ ^ ~ { ! ' - = * , * $ . # $ ",
"+ # # $ % & * ; ; - ' ) ~ ^ / : 2 5 7 c Q.P.[.H K ] ) > ; = , * & & & & & * & % % % & * * & * * * , - ; = - ) 7 i x c 4 l.a.2 } [ ^ ] { { ' - ; , & & % . # $ + ",
"+ . . + # % & , , ; ! ! ) { ] / } | 9 K /.4.C F p ' - , * , , & & & * * * * & % % % % & & & & & % * - = * , { d 0 d e 8 6 < | _ / ~ ~ ~ ' - = = * & % $ . . $ . ",
". # . # # $ & & * = > ' ! ) ~ / [ } 3 8 d K c e 7 ( ; * * & % % % % % % % & $ $ % % % % $ % & & % & = = , * _ 9 5 4 4 6 1 | : ( ( ] { ) ' ; * & % & & $ . . $ $ ",
"# # # $ # . $ & % , ; ; - ! { ^ ( _ < | 5 8 8 5 8 _ = , & % $ % % $ % $ $ & % $ % % % % % % & & & & * * * = < 4 3 2 1 < _ : ( ~ ~ { ' - > = * % $ $ # # + @ $ % ",
"# # . + . . . $ % * ; ; ; - ! { ] ( [ : 1 6 | | 3 } * % $ # + # % % % % % & % % & % $ % & % % % % & & & & > | | 2 : : } / ^ { ! ! > - , * , & $ $ . + # . @ . + ",
"$ # . + . . . $ % * , * = - > ! { ~ ^ ^ / : < 1 | 2 > % $ # # . % $ % & & & % # $ % % % $ $ $ $ % % % % & ] 2 1 } [ [ ( ^ ~ ) ) ' - > ; & $ % % # + @ # # . . + ",
"% # . . . + . $ % % * * , ; - ' ' ! { ~ ^ [ : } < 1 { $ & % $ % & . # $ & % $ # # # $ % $ # $ $ $ % $ $ $ } 1 } : _ ^ ~ ~ { ) ! > ; ; = * % & % # + + $ $ . # # ",
"% # . . + @ . . # $ % , = , = - > > ) { ] ^ ^ / _ [ ^ & % % $ % # # # # $ # $ % $ # # % $ # # # # % , + > < : [ / ^ ] { ) ) ' > ; = ; , * % & $ . + # $ # . . . ",
"$ $ . . + . $ . . . # & & & * = ; - ' ! ) ] ] ( [ ( [ ; % $ % $ . # $ $ % $ . . # # # $ $ $ % $ # % * # ( / / ( ] ~ { ) ' > - ; = * , * & $ . . + . # $ . + . + ",
". + # # . # $ # $ $ $ % & & * = = ; - > ! { ~ ^ ( ] / ! % # $ $ $ # # $ % % % $ # # # . . # $ # # % $ & ( ~ ^ ] ~ { ) ! - - ; ; = * & % % # + + # . + . # # # # ",
"@ + # # # . # $ $ $ # $ % & * , = = - ; - ! ! { ~ ) ~ ~ , # # . # # . . # # $ # + # $ $ $ $ % % $ # # ; { ) ) ) ! ) ! > - ; , , * % $ . . . . . . . + . # # # # ",
"@ . # . # . # $ $ $ # . $ $ $ & , , ; = ; > ' ) { ! ! ~ = # . + # # . @ . # # + @ # $ $ $ # $ $ % . # > ) ~ ' ' > > - ; = , * & & # . . # # # # + . + . # # . . ",
"# $ $ + + + # # $ $ . + . . $ % * * * * * = - > - > ' { > # + . $ # + + + # $ . # . # # + . # # $ # * ! ) ) > - ; ; ; , & & & & # # # # # # # . . . @ . # . . + ",
"$ $ $ $ . . $ # . . # # + . # # % % % % & , = , ; ; - > ! $ + $ $ . . # + # $ # . . . # . # # # . $ = > - - ; = , ; = * % # $ % . . # # # # # # $ # + . # . # + ",
"+ . # $ . # $ # . # $ # $ # . # $ $ $ # . % & & & = ; = > , # # $ . . % $ # $ . + + # $ % # # # . $ ; = = = = * & , * % % . # $ . # # . . . # # $ # + + . . + + ",
"@ + . . + . + . # $ $ . # # . # $ % % # . $ & * * * , , = & . # $ # # % % $ $ # . + + . . . # $ . $ ; & & & & * * & % % $ $ # # # . # # . + + + . . . . . # + # ",
"@ + . . # + + + . # # + # # + + # # # . . $ % * & & & % $ & # # $ # # % # . # . . . . + + . $ # . & , % % % % & & % $ $ $ . + + . + + . # . + @ . + # $ $ # + . ",
". . + + $ # . + . # . . $ $ . + . # # . . $ % % $ $ % % % * % # # # # # # # . + # $ # . . # # # . % * % % % $ $ $ $ # # # + @ d.. . + + . # # $ # . . # $ # . . ",
"$ $ . . # . + + . $ . . $ $ $ + + # . + . $ % $ # # % % % * & # . # . . # $ . @ $ $ # . # # # # + $ % % $ % # . # $ + $ # + @ d.. # . . # . # # $ . + . $ $ . $ "};
